<?xml version="1.0" encoding="utf-8"?>
<!-- Generator: Adobe Illustrator 19.0.0, SVG Export Plug-In . SVG Version: 6.00 Build 0)  -->
<svg version="1.1" id="Layer_1" xmlns="http://www.w3.org/2000/svg" xmlns:xlink="http://www.w3.org/1999/xlink" x="0px" y="0px"
	 viewBox="0 0 50 50" style="enable-background:new 0 0 50 50;" xml:space="preserve">
<style type="text/css">
	.st0{fill:#929292;}
</style>
<path id="XMLID_302_" class="st0" d="M33,12H17c-2.8,0-5,2.3-5,5v5.3V33c0,2.8,2.3,5,5,5h16c2.8,0,5-2.3,5-5V22.3V17
	C38,14.2,35.7,12,33,12z M34.4,15l0.6,0v0.6v3.8l-4.4,0l0-4.4L34.4,15z M21.3,22.3c0.8-1.2,2.2-1.9,3.7-1.9s2.9,0.8,3.7,1.9
	c0.5,0.8,0.9,1.7,0.9,2.7c0,2.5-2.1,4.6-4.6,4.6c-2.5,0-4.6-2.1-4.6-4.6C20.4,24,20.7,23.1,21.3,22.3z M35.5,33
	c0,1.4-1.1,2.5-2.5,2.5H17c-1.4,0-2.5-1.1-2.5-2.5V22.3h3.9c-0.3,0.8-0.5,1.7-0.5,2.7c0,3.9,3.2,7.1,7.1,7.1c3.9,0,7.1-3.2,7.1-7.1
	c0-0.9-0.2-1.8-0.5-2.7h3.9V33z"/>
</svg>
