<?xml version="1.0" encoding="utf-8"?>
<!-- Generator: Adobe Illustrator 19.0.0, SVG Export Plug-In . SVG Version: 6.00 Build 0)  -->
<svg version="1.1" id="Layer_1" xmlns="http://www.w3.org/2000/svg" xmlns:xlink="http://www.w3.org/1999/xlink" x="0px" y="0px"
	 viewBox="-39 41 20 20" style="enable-background:new -39 41 20 20;" xml:space="preserve">
<style type="text/css">
	.st0{fill:#C49A2C;}
	.st1{fill:#FFFFFF;}
</style>
<g id="XMLID_2_">
	<path id="XMLID_1_" class="st0" d="M-24,60.5h-10c-2.2,0-4-1.8-4-4v-10h18v10C-20,58.7-21.8,60.5-24,60.5z"/>
	<g id="XMLID_4_">
		<path id="XMLID_19_" class="st0" d="M-25.5,49.6c-0.4,0-0.8-0.3-0.8-0.8V46c0-1.8-1.2-3.2-2.7-3.2s-2.7,1.4-2.7,3.2v2.8
			c0,0.4-0.3,0.8-0.8,0.8s-0.7-0.3-0.7-0.7V46c0-2.6,1.9-4.7,4.2-4.7s4.3,2.1,4.3,4.7v2.8C-24.8,49.3-25.1,49.6-25.5,49.6z"/>
		<path id="XMLID_16_" class="st1" d="M-29,41.5c2.2,0,4,2,4,4.5v2.8c0,0.3-0.2,0.5-0.5,0.5s-0.5-0.2-0.5-0.4V46
			c0-1.9-1.3-3.5-3-3.5s-3,1.6-3,3.5v2.8c0,0.3-0.2,0.5-0.5,0.5s-0.5-0.2-0.5-0.4V46C-33,43.5-31.2,41.5-29,41.5 M-29,41
			c-2.5,0-4.5,2.3-4.5,5v2.8c0,0.6,0.4,1,1,1c0.6,0,1-0.4,1-1V46c0-1.6,1.1-3,2.5-3s2.5,1.3,2.5,3v2.8c0,0.6,0.4,1,1,1s1-0.4,1-1V46
			C-24.5,43.3-26.5,41-29,41L-29,41z"/>
	</g>
</g>
</svg>
