<?xml version="1.0" encoding="utf-8"?>
<!-- Generator: Adobe Illustrator 19.0.0, SVG Export Plug-In . SVG Version: 6.00 Build 0)  -->
<svg version="1.1" id="Layer_1" xmlns="http://www.w3.org/2000/svg" xmlns:xlink="http://www.w3.org/1999/xlink" x="0px" y="0px"
	 viewBox="0 0 50 50" style="enable-background:new 0 0 50 50;" xml:space="preserve">
<style type="text/css">
	.st0{fill:#929292;}
</style>
<g id="XMLID_309_">
	<path id="XMLID_314_" class="st0" d="M27.2,31.9c5.3,0,8.9-4.8,8.9-11.3c0-4.9-4.2-9.5-10.5-9.5c-7.9,0-11.8,5.6-11.8,10.3
		c0,2.8,1.1,5.4,3.4,6.3c0.4,0.2,0.7,0,0.8-0.4c0.1-0.3,0.3-1,0.3-1.3c0.1-0.4,0.1-0.6-0.2-0.9c-0.7-0.8-1.1-1.8-1.1-3.2
		c0-4.2,3.1-7.9,8.1-7.9c4.4,0,6.9,2.7,6.9,6.3c0,4.8-2.1,8.8-5.2,8.8c-1.7,0-3-1.4-2.6-3.2c0.5-2.1,1.5-4.4,1.5-5.9
		c0-1.4-0.7-2.5-2.2-2.5c-1.8,0-3.2,1.8-3.2,4.3c0,1.6,0.5,2.6,0.5,2.6s-1.8,7.7-2.1,9c-0.3,1.3-0.3,2.6-0.3,3.8c0,0,0,1.6,0.4,1.8
		c0.3,0.1,1.3-0.7,1.6-1.1c0.3-0.4,1.3-2.3,1.7-3.5c0.2-0.7,1.2-4.5,1.2-4.5C23.8,30.9,25.4,31.9,27.2,31.9z"/>
</g>
</svg>
