<?xml version="1.0" encoding="utf-8"?>
<!-- Generator: Adobe Illustrator 19.0.0, SVG Export Plug-In . SVG Version: 6.00 Build 0)  -->
<svg version="1.1" id="Layer_1" xmlns="http://www.w3.org/2000/svg" xmlns:xlink="http://www.w3.org/1999/xlink" x="0px" y="0px"
	 viewBox="0 0 20 20" style="enable-background:new 0 0 20 20;" xml:space="preserve">
<style type="text/css">
	.st0{fill:#5A5B5D;}
	.st1{fill:#FFFFFF;}
</style>
<g id="XMLID_2_">
	<path id="XMLID_1_" class="st0" d="M15,19.5H5c-2.2,0-4-1.8-4-4v-10h18v10C19,17.7,17.2,19.5,15,19.5z"/>
	<g id="XMLID_4_">
		<path id="XMLID_19_" class="st0" d="M13.5,8.6c-0.4,0-0.8-0.3-0.8-0.8V5c0-1.8-1.2-3.2-2.7-3.2C8.5,1.8,7.3,3.2,7.3,5v2.8
			c0,0.4-0.3,0.8-0.8,0.8S5.8,8.3,5.8,7.9V5c0-2.6,1.9-4.7,4.2-4.7c2.3,0,4.3,2.1,4.3,4.7v2.8C14.2,8.3,13.9,8.6,13.5,8.6z"/>
		<path id="XMLID_16_" class="st1" d="M10,0.5c2.2,0,4,2,4,4.5v2.8c0,0.3-0.2,0.5-0.5,0.5S13,8.1,13,7.9V5c0-1.9-1.3-3.5-3-3.5
			C8.3,1.5,7,3.1,7,5v2.8c0,0.3-0.2,0.5-0.5,0.5S6,8.1,6,7.9V5C6,2.5,7.8,0.5,10,0.5 M10,0C7.5,0,5.5,2.3,5.5,5v2.8c0,0.6,0.4,1,1,1
			s1-0.4,1-1V5c0-1.6,1.1-3,2.5-3c1.4,0,2.5,1.3,2.5,3v2.8c0,0.6,0.4,1,1,1c0.6,0,1-0.4,1-1V5C14.5,2.3,12.5,0,10,0L10,0z"/>
	</g>
</g>
</svg>
