<?xml version="1.0" encoding="utf-8"?>
<!-- Generator: Adobe Illustrator 19.0.0, SVG Export Plug-In . SVG Version: 6.00 Build 0)  -->
<svg version="1.1" id="Layer_1" xmlns="http://www.w3.org/2000/svg" xmlns:xlink="http://www.w3.org/1999/xlink" x="0px" y="0px"
	 viewBox="0 0 231 22.2" style="enable-background:new 0 0 231 22.2;" xml:space="preserve">
<g id="XMLID_1_">
	<path id="XMLID_5_" d="M2.9,1H0V0.5h9.6C17.7,0.5,20,7.2,20,11.3C20,17.9,15.9,22,9.6,22H0v-0.5h2.9V1z M6,21.5h2.6
		c2.8,0,7.9-1,7.9-10.3C16.5,6,15,1,7.5,1H6V21.5z"/>
	<path id="XMLID_8_" d="M30.4,1h-2.7V0.5H44l0.4,5.2h-0.5c0-3.5-2.3-4.7-5.6-4.7h-4.8v9.9h2.3c3.2,0,3.5-1.9,3.5-3.9h0.5v8.1h-0.5
		c0-2.3-0.3-3.7-3.5-3.7h-2.3v10.2h4.2c5,0,7.3-0.6,7.3-5.8h0.5V22H27.7v-0.5h2.7V1z"/>
	<path id="XMLID_10_" d="M64.9,8.5l3.6-5.8c0.3-0.5,0.4-0.7,0.4-1c0-0.5-0.3-0.8-1.8-0.8h-0.9V0.5h6.6V1h-1c-1.3,0-1.9,0.5-2.7,1.9
		L65.2,9l7,12.5h2.5V22h-8.9v-0.5h2.8L63.2,12l-4.5,7c-1,1.6-1.1,1.7-1.1,2c0,0.4,0.4,0.6,1.2,0.6h1.5V22h-7.2v-0.5H54
		c1.5,0,2.5-0.1,3.4-1.6l5.5-8.6L57,1h-2.7V0.5h9V1h-2.6L64.9,8.5z"/>
	<path id="XMLID_12_" d="M89,1h-0.6c-5.4,0-6.7,0.8-6.7,5.8h-0.5V0.5h18.7v6.3h-0.5c0-5-1.2-5.8-6.6-5.8h-0.7v20.6h3.2V22h-9.4v-0.5
		H89V1z"/>
	<path id="XMLID_14_" d="M109.4,1h-2.7V0.5H123l0.4,5.2h-0.5c0-3.5-2.3-4.7-5.6-4.7h-4.8v9.9h2.3c3.2,0,3.5-1.9,3.5-3.9h0.5v8.1
		h-0.5c0-2.3-0.3-3.7-3.5-3.7h-2.3v10.2h4.2c5,0,7.3-0.6,7.3-5.8h0.5V22h-17.8v-0.5h2.7V1z"/>
	<path id="XMLID_16_" d="M135.7,1h-3.1V0.5h9.4c3.5,0,7.3,0.8,7.3,5.4c0,3.7-4.3,4.7-6.5,5V11c3.5,0.3,5.4,1.1,5.8,5.1l0.4,3.7
		c0.2,1.8,1.1,1.9,1.6,1.9c0.6,0,0.9-0.2,1.3-0.3l0.2,0.4c-0.6,0.2-1.4,0.4-2.5,0.4c-3.7,0-3.9-2-4.4-5.5l-0.2-1.8
		c-0.2-1.9-0.8-3.7-4.2-3.7h-2v10.3h3.1V22h-9.3v-0.5h3.1V1z M138.9,10.7h1.5c3.6,0,5.7-1.3,5.7-4.8c0-2.4-0.8-4.9-5.2-4.9h-2.1
		V10.7z"/>
	<path id="XMLID_19_" d="M165.8,1h-0.6c-5.4,0-6.7,0.8-6.7,5.8H158V0.5h18.7v6.3h-0.5c0-5-1.2-5.8-6.6-5.8h-0.7v20.6h3.2V22h-9.4
		v-0.5h3.2V1z"/>
	<path id="XMLID_21_" d="M192.8,0c5.2,0,9.7,5,9.7,11.3s-4.5,11.3-9.7,11.3s-9.7-5-9.7-11.3S187.7,0,192.8,0z M192.8,22
		c5.4,0,6.2-6.8,6.2-10.8s-0.7-10.8-6.2-10.8s-6.2,6.8-6.2,10.8S187.4,22,192.8,22z"/>
	<path id="XMLID_24_" d="M213,2L213,2L213,19.8c0,1.5,0.5,1.7,1.9,1.7h1.2V22h-6.5v-0.5h1c1.4,0,1.9-0.3,1.9-1.7V1h-2.9V0.5h6.4
		l11.6,16h0.1V2.6c0-1.3-0.2-1.7-1.6-1.7h-1.4V0.5h6.5V1h-1.3c-1.3,0-1.6,0.4-1.6,1.7v19.6h-0.4L213,2z"/>
</g>
</svg>
