<?xml version="1.0" encoding="utf-8"?>
<!-- Generator: Adobe Illustrator 19.0.0, SVG Export Plug-In . SVG Version: 6.00 Build 0)  -->
<svg version="1.1" id="Layer_1" xmlns="http://www.w3.org/2000/svg" xmlns:xlink="http://www.w3.org/1999/xlink" x="0px" y="0px"
	 viewBox="0 0 100 18" style="enable-background:new 0 0 100 18;" xml:space="preserve">
<style type="text/css">
	.st0{fill:#C49A2C;}
</style>
<polygon id="XMLID_27_" class="st0" points="9.5,0 12.4,5.9 18.9,6.9 14.2,11.5 15.3,18 9.5,14.9 3.6,18 4.7,11.5 0,6.9 6.5,5.9 "/>
<g id="XMLID_29_">
	<polygon id="XMLID_20_" class="st0" points="90.5,0 93.5,5.9 100,6.9 95.3,11.5 96.4,18 90.5,14.9 84.7,18 85.8,11.5 81.1,6.9 
		87.6,5.9 	"/>
</g>
<polygon id="XMLID_30_" class="st0" points="70.3,0 73.2,5.9 79.7,6.9 75,11.5 76.1,18 70.3,14.9 64.4,18 65.5,11.5 60.8,6.9 
	67.3,5.9 "/>
<polygon id="XMLID_31_" class="st0" points="50,0 52.9,5.9 59.5,6.9 54.7,11.5 55.8,18 50,14.9 44.2,18 45.3,11.5 40.5,6.9 
	47.1,5.9 "/>
<polygon id="XMLID_32_" class="st0" points="29.7,0 32.7,5.9 39.2,6.9 34.5,11.5 35.6,18 29.7,14.9 23.9,18 25,11.5 20.3,6.9 
	26.8,5.9 "/>
</svg>
